<?xml version="1.0" encoding="UTF-8" standalone="no"?>
<svg
   xmlns:dc="http://purl.org/dc/elements/1.1/"
   xmlns:cc="http://creativecommons.org/ns#"
   xmlns:rdf="http://www.w3.org/1999/02/22-rdf-syntax-ns#"
   xmlns:svg="http://www.w3.org/2000/svg"
   xmlns="http://www.w3.org/2000/svg"
   xmlns:sodipodi="http://sodipodi.sourceforge.net/DTD/sodipodi-0.dtd"
   xmlns:inkscape="http://www.inkscape.org/namespaces/inkscape"
   width="48"
   height="48"
   id="svg3001"
   version="1.1"
   inkscape:version="0.48.2 r9819"
   sodipodi:docname="map-marker.svg"
   inkscape:export-filename="G:\minecrafting\mcp\src\minecraft\net\techbrew\mcjm\web\img\locator-blue.png"
   inkscape:export-xdpi="120"
   inkscape:export-ydpi="120">
  <metadata
     id="metadata3015">
    <rdf:RDF>
      <cc:Work
         rdf:about="">
        <dc:format>image/svg+xml</dc:format>
        <dc:type
           rdf:resource="http://purl.org/dc/dcmitype/StillImage" />
        <dc:title>map marker</dc:title>
      </cc:Work>
    </rdf:RDF>
  </metadata>
  <defs
     id="defs3013">
    <filter
       inkscape:collect="always"
       id="filter3926">
      <feGaussianBlur
         inkscape:collect="always"
         stdDeviation="3.6666406"
         id="feGaussianBlur3928" />
    </filter>
  </defs>
  <sodipodi:namedview
     pagecolor="#ffffff"
     bordercolor="#666666"
     borderopacity="1"
     objecttolerance="10"
     gridtolerance="10"
     guidetolerance="10"
     inkscape:pageopacity="0"
     inkscape:pageshadow="2"
     inkscape:window-width="1282"
     inkscape:window-height="894"
     id="namedview3011"
     showgrid="false"
     fit-margin-top="0"
     fit-margin-left="0"
     fit-margin-right="0"
     fit-margin-bottom="0"
     showguides="true"
     inkscape:guide-bbox="true"
     inkscape:zoom="8"
     inkscape:cx="26.096987"
     inkscape:cy="16.702177"
     inkscape:window-x="253"
     inkscape:window-y="137"
     inkscape:window-maximized="0"
     inkscape:current-layer="svg3001">
    <sodipodi:guide
       orientation="1,0"
       position="24,-7.875"
       id="guide3017" />
    <sodipodi:guide
       orientation="0,1"
       position="0.625,24"
       id="guide3019" />
  </sodipodi:namedview>
  <title
     id="title3003">map marker</title>
  <path
     style="opacity:0.5;fill:#000080;fill-rule:evenodd;stroke:#000000;stroke-width:8.17663765;stroke-linejoin:round;stroke-miterlimit:10;stroke-opacity:1;stroke-dasharray:none"
     inkscape:connector-curvature="0"
     id="svg_2-1-8"
     d="m 24.06249,43.379716 c -0.61223,-3.005434 -1.691685,-5.506486 -2.999146,-7.824509 -0.969805,-1.719423 -2.093276,-3.30648 -3.132775,-4.973833 -0.347005,-0.556611 -0.646472,-1.144635 -0.979911,-1.722296 -0.666719,-1.155057 -1.207284,-2.494278 -1.172935,-4.231466 0.03356,-1.697326 0.524456,-3.058862 1.232333,-4.172082 1.164248,-1.830968 3.114408,-3.332161 5.731048,-3.726672 2.139423,-0.322557 4.145283,0.222397 5.56773,1.054155 1.16237,0.679701 2.06251,1.587628 2.74673,2.657656 0.714159,1.11682 1.20594,2.436237 1.247192,4.157235 0.02112,0.881728 -0.123265,1.69826 -0.326664,2.37556 -0.205844,0.685562 -0.536901,1.258627 -0.831442,1.870753 -0.574961,1.194886 -1.295803,2.289708 -2.019221,3.385178 -2.154756,3.262937 -4.177201,6.590597 -5.062939,11.150321 z"
     stroke-miterlimit="10"
     clip-rule="evenodd" />
  <path
     style="fill:#0000ff;fill-rule:evenodd;stroke:#ffffff;stroke-width:1.68578613;stroke-miterlimit:10;stroke-opacity:1;stroke-dasharray:none"
     inkscape:connector-curvature="0"
     id="svg_2-1"
     d="M 24.014163,41.767621 C 23.447688,38.986802 22.448907,36.67267 21.239161,34.527889 20.341836,32.936968 19.30233,31.468521 18.340518,29.92578 18.019447,29.410769 17.742361,28.866691 17.433842,28.332201 16.816952,27.26347 16.316786,26.024339 16.348568,24.41698 c 0.03105,-1.570473 0.485261,-2.830253 1.140232,-3.860276 1.077237,-1.694128 2.881649,-3.083128 5.302731,-3.448153 1.979531,-0.298452 3.83548,0.205777 5.15162,0.975371 1.075498,0.628903 1.908364,1.468975 2.541448,2.459032 0.660787,1.033353 1.115814,2.254161 1.153982,3.84654 0.01954,0.81583 -0.114053,1.571337 -0.302249,2.198019 -0.190462,0.634325 -0.496777,1.164562 -0.769303,1.730939 -0.531992,1.105584 -1.198962,2.118584 -1.868313,3.132182 -1.993717,3.019078 -3.865013,6.09804 -4.684553,10.316987 z"
     stroke-miterlimit="10"
     clip-rule="evenodd"
     inkscape:export-filename="G:\minecrafting\mcp\src\minecraft\net\techbrew\mcjm\web\img\locator-red.png"
     inkscape:export-xdpi="90"
     inkscape:export-ydpi="90" />
  <circle
     d="m 1263.8781,740.047 c 0,101.25148 -82.0806,183.33203 -183.3321,183.33203 -101.25146,0 -183.33201,-82.08055 -183.33201,-183.33203 0,-101.25149 82.08055,-183.33203 183.33201,-183.33203 101.2515,0 183.3321,82.08054 183.3321,183.33203 z"
     style="fill:#000000;fill-opacity:1;fill-rule:evenodd;stroke:#ffffff;stroke-width:94.76564789;stroke-miterlimit:4;stroke-opacity:1;stroke-dasharray:none;filter:url(#filter3926)"
     sodipodi:ry="183.33203"
     sodipodi:rx="183.33203"
     sodipodi:cy="740.047"
     sodipodi:cx="1080.546"
     id="svg_4"
     r="183.33203"
     cy="740.047"
     cx="1080.546"
     clip-rule="evenodd"
     transform="matrix(0.01461274,0,0,0.01461274,8.2711072,13.163587)" />
</svg>
